<svg xmlns="http://www.w3.org/2000/svg" width="476.54" height="243.96" viewBox="0 0 476.54 243.96"><defs><style>.a{fill:#fff;}.b{fill:#faa31b;}</style></defs><path class="a" d="M136,151.64v-.19c0-9.94-6.48-15.6-21.66-18.91-14.82-3.17-17.53-6.67-17.53-12.4V120c0-6,5.59-10.24,13.61-10.24,6.87,0,12.82,2.24,18.72,7.05l.28.23,4.74-6.28-.27-.22a34.43,34.43,0,0,0-23.28-8.14c-12.7,0-21.92,7.67-21.92,18.26v.19c0,10.38,6.25,15.79,22.31,19.28,14.11,3,16.78,6.56,16.78,12.12v.19c0,6.36-5.86,10.8-14.27,10.8-8.59,0-15-2.67-22.26-9.19l-.27-.24-5,6,.25.23c8.1,7.23,16.7,10.59,27.06,10.59,13.39,0,22.76-7.78,22.76-18.92" transform="translate(-0.73 -0.02)"/><path class="a" d="M43.51,146.21a24,24,0,0,1-4.88,8.06C34,159.45,28.15,162,20.74,162H8.67V111H20.74c7.36,0,13.22,2.46,17.91,7.52a24,24,0,0,1,4.86,8,28.43,28.43,0,0,1,1.69,9.77,28.75,28.75,0,0,1-1.69,9.87m1-33.11a30.64,30.64,0,0,0-10.55-7.5A33.05,33.05,0,0,0,20.74,103H.73v67h20a33.05,33.05,0,0,0,13.19-2.64,30.11,30.11,0,0,0,10.57-7.61A34.52,34.52,0,0,0,51,149a36.39,36.39,0,0,0,0-25.25,33.14,33.14,0,0,0-6.5-10.62" transform="translate(-0.73 -0.02)"/><rect class="a" x="64.85" y="102.94" width="7.94" height="66.95"/><path class="a" d="M178.53,170.59a33.13,33.13,0,0,0,14.63-3.35,33.71,33.71,0,0,0,11.73-9.41l1.12-1.4-6.3-4.9-1.1,1.34a26.92,26.92,0,0,1-9,7.14,25.57,25.57,0,0,1-24-1,26.44,26.44,0,0,1-9.46-9.56,26.39,26.39,0,0,1,0-26.3,26.59,26.59,0,0,1,9.46-9.56A25.47,25.47,0,0,1,189,112.4a26.11,26.11,0,0,1,8.63,6.39l1.17,1.33,6.1-5.39-1.23-1.34a35,35,0,0,0-11.45-8.27,33.36,33.36,0,0,0-30.65,1.71,34.25,34.25,0,0,0-12.33,12.43,34.54,34.54,0,0,0,0,34.2A34.21,34.21,0,0,0,161.53,166a33,33,0,0,0,17,4.63" transform="translate(-0.73 -0.02)"/><path class="a" d="M268.67,149.55a26.21,26.21,0,0,1-9.41,9.5,25.74,25.74,0,0,1-25.9,0,26.48,26.48,0,0,1-9.46-9.52,26.16,26.16,0,0,1,0-26.18,26.56,26.56,0,0,1,9.46-9.52,25.63,25.63,0,0,1,25.89,0,26.16,26.16,0,0,1,9.42,9.5,26.57,26.57,0,0,1,0,26.22m-5.37-42.68a34.1,34.1,0,0,0-34,59.14,33.8,33.8,0,0,0,34,0,34.29,34.29,0,0,0,0-59.14" transform="translate(-0.73 -0.02)"/><path class="a" d="M340.76,154.36a27.07,27.07,0,0,0,1.93-10.12V103h-7.94v41.28a18.94,18.94,0,0,1-1.38,7.13,17.55,17.55,0,0,1-3.86,5.85,18.27,18.27,0,0,1-5.87,4,17.92,17.92,0,0,1-13.74,0,18.38,18.38,0,0,1-5.87-4,17.37,17.37,0,0,1-3.85-5.85,18.74,18.74,0,0,1-1.38-7.13V103h-7.94v41.28a26.92,26.92,0,0,0,1.93,10.12,24.25,24.25,0,0,0,5.6,8.38,25.75,25.75,0,0,0,8.42,5.8,25.37,25.37,0,0,0,20,0,26,26,0,0,0,8.33-5.76,24.42,24.42,0,0,0,5.64-8.42" transform="translate(-0.73 -0.02)"/><polygon class="a" points="400.23 152.04 356.35 100.53 356.35 169.89 364.29 169.89 364.29 122.03 408.18 173.83 408.18 102.94 400.23 102.94 400.23 152.04"/><polygon class="a" points="418.27 102.94 418.27 110.98 443.44 110.98 443.44 169.89 451.48 169.89 451.48 110.98 476.54 110.98 476.54 102.94 418.27 102.94"/><path class="a" d="M143.23,210a11.39,11.39,0,0,1-4.39,3.62,13.62,13.62,0,0,1-6.07,1.35H119.19l-.07-19.71h13.65a13.69,13.69,0,0,1,6.08,1.35,11.33,11.33,0,0,1,4.38,3.62,8.3,8.3,0,0,1,0,9.77m-2-17.7a18.17,18.17,0,0,0-8.44-2H114.23l.08,50.67v.71h4.87V220h13.58a18.29,18.29,0,0,0,8.44-2,16.5,16.5,0,0,0,6.19-5.43,13.15,13.15,0,0,0,0-14.9,16.44,16.44,0,0,0-6.18-5.38" transform="translate(-0.73 -0.02)"/><path class="a" d="M201,226.66a21.34,21.34,0,0,1-7.66,7.73,20.86,20.86,0,0,1-21.12,0,21.71,21.71,0,0,1-7.7-7.74,21.33,21.33,0,0,1,0-21.34,21.71,21.71,0,0,1,7.7-7.74,20.86,20.86,0,0,1,21.12,0A21.34,21.34,0,0,1,201,205.3a21.63,21.63,0,0,1,0,21.36m-5.18-33.39a25.91,25.91,0,0,0-26.08,0,26.33,26.33,0,0,0,0,45.42,25.91,25.91,0,0,0,26.08,0,26.34,26.34,0,0,0,0-45.42" transform="translate(-0.73 -0.02)"/><polygon class="a" points="256.34 228.86 242.5 192.93 228.51 229.03 216.43 190.27 211.33 190.27 228.05 243.94 242.5 206.56 256.79 243.96 273.44 190.27 268.26 190.27 256.34 228.86"/><polygon class="a" points="282.6 241.65 316.38 241.65 316.38 236.62 287.48 236.62 287.48 218.43 310 218.43 310 213.49 287.48 213.49 287.48 195.22 316.38 195.22 316.38 190.27 282.6 190.27 282.6 241.65"/><path class="a" d="M350.5,219.49a16.42,16.42,0,0,0,4.85-1.4,15.34,15.34,0,0,0,6.28-5,13.07,13.07,0,0,0,1.42-13.53,15.11,15.11,0,0,0-3.59-4.76,17.16,17.16,0,0,0-5.61-3.32,20.08,20.08,0,0,0-6.86-1.16H328.84v51.38h4.87v-46.5H347a14.19,14.19,0,0,1,6.59,1.46,11.21,11.21,0,0,1,4.35,3.72,8.3,8.3,0,0,1,1.5,4.72,8,8,0,0,1-1.77,5.05,11.64,11.64,0,0,1-4.25,3.51,23.77,23.77,0,0,1-9,1.41h-7.65l21.7,26.37.22.26h6.45L347.1,219.74c1.18,0,2.32-.12,3.4-.25" transform="translate(-0.73 -0.02)"/><path class="b" d="M197.61,94.55a46.6,46.6,0,1,1,93.2,0c0,.62,51.41-9.19,51.41-9.19L293.85,80.8l13.76-12-19.94-1.56,32.58-35.59L277.92,56l7.6-20.26L265.41,48l6.32-48-20.6,43.77-7.44-21.17-7.44,21.17L215.65,0,222,48,201.86,35.76,209.46,56l-41-24.34,31.26,35.59-19.94,1.56,13.75,12-48.36,4.56s52.44,9.81,52.44,9.19" transform="translate(-0.73 -0.02)"/><path class="a" d="M374.4,235.65a2.52,2.52,0,0,0-1.15-.2h-.82v2h.86a2.58,2.58,0,0,0,.91-.12,1,1,0,0,0,.2-1.64m-1-.85a4.16,4.16,0,0,1,1.48.19,1.35,1.35,0,0,1,.84,1.37,1.18,1.18,0,0,1-.53,1.08,2,2,0,0,1-.78.26,1.33,1.33,0,0,1,.93.53,1.49,1.49,0,0,1,.3.84v.4c0,.12,0,.26,0,.4a.69.69,0,0,0,.05.28l0,.07h-.9v-.05s0,0,0-.06l0-.18v-.43a1.33,1.33,0,0,0-.51-1.24,2.45,2.45,0,0,0-1.07-.17h-.75v2.13h-1V234.8Zm-2.91-.28a4.12,4.12,0,0,0-1.23,3,4.18,4.18,0,0,0,1.23,3,4.24,4.24,0,0,0,6,0,4.15,4.15,0,0,0,1.24-3,4.24,4.24,0,0,0-7.25-3M377,241a4.94,4.94,0,0,1-7,0,4.84,4.84,0,0,1-1.43-3.51,4.94,4.94,0,0,1,9.87,0A4.78,4.78,0,0,1,377,241" transform="translate(-0.73 -0.02)"/></svg>