<?xml version="1.0" encoding="utf-8"?>
<!-- Generator: Adobe Illustrator 26.0.1, SVG Export Plug-In . SVG Version: 6.00 Build 0)  -->
<svg version="1.1" id="Layer_1" xmlns="http://www.w3.org/2000/svg" xmlns:xlink="http://www.w3.org/1999/xlink" x="0px" y="0px"
	 viewBox="0 0 1140 290" style="enable-background:new 0 0 1140 290;" xml:space="preserve">
<style type="text/css">
	.st0{fill:#FFFFFF;}
</style>
<polygon class="st0" points="170,170 100,170 100,190 170,190 170,270 60,270 20,230 20,20 100,20 100,90 170,90 "/>
<polygon class="st0" points="470,270 230,270 190,230 190,90 270,90 270,190 290,190 290,90 370,90 370,190 390,190 390,90 470,90 
	"/>
<rect x="490" y="90" class="st0" width="80" height="180"/>
<rect x="490" y="20" class="st0" width="80" height="50"/>
<polygon class="st0" points="740,170 670,170 670,190 740,190 740,270 630,270 590,230 590,20 670,20 670,90 740,90 "/>
<polygon class="st0" points="920,170 840,170 840,190 920,190 920,270 800,270 760,230 760,130 800,90 920,90 "/>
<polygon class="st0" points="1120,270 1040,270 1040,170 1020,170 1020,270 940,270 940,20 1020,20 1020,90 1080,90 1120,130 "/>
<path id="Outline" d="M1140,290V120l-50-50h-50V0H920.2l-0.5,70H790l-30,30V70h-70V0H470v70H120.5L120,0H0v240l50,50h140v-30l30,30
	h370v-30l30,30h140v-30l30,30 M170,170h-70v20h70v80H60l-40-40V20h80v70h70V170z M470,270H230l-40-40V90h80v100h20V90h80v100h20V90
	h80V270z M570,270h-80V90h80V270z M570,70h-80V20h80V70z M740,170h-70v20h70v80H630l-40-40V20h80v70h70V170z M920,170h-80v20h80v80
	H800l-40-40V130l40-40h120V170z M1120,270h-80V170h-20v100h-80V20h80v70h60l40,40V270z"/>
</svg>
