<svg xmlns="http://www.w3.org/2000/svg" width="1140" height="290" viewBox="0 0 1140 290"><defs><style>.a{fill:#fff;}</style></defs><polygon class="a" points="170 170.01 100 170.01 100 190 170 190 170 270.01 60 270.01 20 230.01 20 20 100 20 100 90 170 90 170 170.01"/><polygon class="a" points="470 270.01 230 270.01 190 230.01 190 90 270 90 270 190 290 190 290 90 370 90 370 190 390 190 390 90 470 90 470 270.01"/><rect class="a" x="490" y="90" width="80" height="180"/><rect class="a" x="490" y="20" width="80" height="50"/><polygon class="a" points="740 170.01 670 170.01 670 190 740 190 740 270.01 630 270.01 590 230.01 590 20 670 20 670 90 740 90 740 170.01"/><polygon class="a" points="920 170.01 840 170.01 840 190 920 190 920 270.01 800 270.01 760 230.01 760 130.01 800 90 920 90 920 170.01"/><polygon class="a" points="1120 270.01 1040 270.01 1040 170.01 1020 170.01 1020 270.01 940 270.01 940 20 1020 20 1020 90 1080 90 1120 130.01 1120 270.01"/><path d="M1140,290V120l-50-50h-50V0H937.21l-.49,70H790l-30,30V70H690V0H470V70H105V0H0V240l50,50H190V260l30,30H590V260l30,30H760V260l30,30M170,170H100v20h70v80H60L20,230V20h80V90h70ZM470,270H230l-40-40V90h80V190h20V90h80V190h20V90h80Zm100,0H490V90h80Zm0-200H490V20h80ZM740,170H670v20h70v80H630l-40-40V20h80V90h70Zm180,0H840v20h80v80H800l-40-40V130l40-40H920Zm200,100h-80V170h-20V270H940V20h80V90h60l40,40Z"/></svg>