<svg xmlns="http://www.w3.org/2000/svg" width="300" height="97.22" viewBox="0 0 300 97.22"><defs><style>.a{fill:#0782bb;}.b{fill:#0d4e96;}.c{fill:#ef8722;}</style></defs><path class="a" d="M149.46,56.81c-59.77,0-113.32,7.73-149.46,20V96.85c36.14-12.22,89.69-20,149.46-20,60.37,0,114.39,7.9,150.54,20.33V77.13C263.85,64.7,209.83,56.81,149.46,56.81Z"/><path class="b" d="M149.46,30.59c-59.77,0-113.32,7.74-149.46,20V76.63C36.14,64.41,89.69,56.68,149.46,56.68,209.83,56.68,263.85,64.57,300,77V50.91C263.85,38.48,209.83,30.59,149.46,30.59Z"/><path class="c" d="M149.46,0C89.69,0,36.14,7.74,0,20V51C36.14,38.83,89.69,31.09,149.46,31.09,209.83,31.09,263.85,39,300,51.41V20.32C263.85,7.89,209.83,0,149.46,0Z"/></svg>