<svg xmlns="http://www.w3.org/2000/svg" width="1140" height="290" viewBox="0 0 1140 290"><path d="M1140,290V120l-50-50h-50V0H920.21l-.49,70H790l-30,30V70H690V0H470V70H120.5L120,0H0V240l50,50H190V260l30,30H590V260l30,30H760V260l30,30M170,170H100v20h70v80H60L20,230V20h80V90h70ZM470,270H230l-40-40V90h80V190h20V90h80V190h20V90h80Zm100,0H490V90h80Zm0-200H490V20h80ZM740,170H670v20h70v80H630l-40-40V20h80V90h70Zm180,0H840v20h80v80H800l-40-40V130l40-40H920Zm200,100h-80V170h-20V270H940V20h80V90h60l40,40Z"/></svg>