<?xml version="1.0" encoding="utf-8"?>
<!-- Generator: Adobe Illustrator 26.0.1, SVG Export Plug-In . SVG Version: 6.00 Build 0)  -->
<svg version="1.1" id="Layer_1" xmlns="http://www.w3.org/2000/svg" xmlns:xlink="http://www.w3.org/1999/xlink" x="0px" y="0px"
	 viewBox="0 0 1140 380" style="enable-background:new 0 0 1140 380;" xml:space="preserve">
<style type="text/css">
	.st0{fill:#FFFFFF;}
	.st1{display:none;}
</style>
<g id="Layer_2_00000085236088374577279330000009431385694990125499_">
	<g id="Layer_1-2">
		<polygon class="st0" points="170,170 100,170 100,190 170,190 170,270 60,270 20,230 20,20 100,20 100,90 170,90 		"/>
		<polygon class="st0" points="470,270 230,270 190,230 190,90 270,90 270,190 290,190 290,90 370,90 370,190 390,190 390,90 
			470,90 		"/>
		<rect x="490" y="90" class="st0" width="80" height="180"/>
		<rect x="490" y="20" class="st0" width="80" height="50"/>
		<polygon class="st0" points="740,170 670,170 670,190 740,190 740,270 630,270 590,230 590,20 670,20 670,90 740,90 		"/>
		<polygon class="st0" points="920,170 840,170 840,190 920,190 920,270 800,270 760,230 760,130 800,90 920,90 		"/>
		<polygon class="st0" points="1120,270 1040,270 1040,170 1020,170 1020,270 940,270 940,20 1020,20 1020,90 1080,90 1120,130 		
			"/>
		<path id="Orig" class="st1" d="M1090,70h-50V0H930.2l-50.5,70H790l-30,30V70h-70V0H470v70H160.5L110,0H0v240l140,140h140v-40
			l40,40h270v-40l40,40h130v-40l40,40h250l90-90V120L1090,70z M170,170h-70v20h70v80H60l-40-40V20h80v70h70V170z M470,270H230
			l-40-40V90h80v100h20V90h80v100h20V90h80V270z M570,270h-80V90h80V270z M570,70h-80V20h80V70z M740,170h-70v20h70v80H630l-40-40
			V20h80v70h70V170z M920,170h-80v20h80v80H800l-40-40V130l40-40h120V170z M1120,270h-80V170h-20v100h-80V20h80v70h60l40,40V270z"/>
		<polygon id="Left_Extrusion" class="st1" points="468,230 0,230 0,240 140,380 280,380 280,340 320,380 468,380 		"/>
		<polyline id="Full_extrusion_element" class="st1" points="0,230 0,240 140,380 280,380 280,340 320,380 590,380 590,340 630,380 
			760,380 760,340 800,380 1050,380 1140,290 1140,230 		"/>
		<polygon id="Middle_Extrusion" class="st1" points="1053,230 468,230 468,380 590,380 590,340 630,380 760,380 760,340 800,380 
			1050,380 1053,377 		"/>
		<g id="Right_Extrusion">
			<polygon points="1053,230 1053,377 1140,290 1140,230 			"/>
		</g>
		<path id="Outline" class="st1" d="M1140,290V120l-50-50h-50V0H920.2l-0.5,70H790l-30,30V70h-70V0H470v70H120.5L120,0H0v240l50,50
			h140v-30l30,30h370v-30l30,30h140v-30l30,30 M170,170h-70v20h70v80H60l-40-40V20h80v70h70V170z M470,270H230l-40-40V90h80v100h20
			V90h80v100h20V90h80V270z M570,270h-80V90h80V270z M570,70h-80V20h80V70z M740,170h-70v20h70v80H630l-40-40V20h80v70h70V170z
			 M920,170h-80v20h80v80H800l-40-40V130l40-40h120V170z M1120,270h-80V170h-20v100h-80V20h80v70h60l40,40V270z"/>
	</g>
</g>
</svg>
